<?xml version="1.0" encoding="utf-8" ?>
<svg baseProfile="full" height="300mm" version="1.1" viewBox="0,0,200,300" width="200mm" xmlns="http://www.w3.org/2000/svg" xmlns:ev="http://www.w3.org/2001/xml-events" xmlns:xlink="http://www.w3.org/1999/xlink"><defs /><rect fill="#222222" height="300" width="200" x="0" y="0" /><text fill="#FFFFFF" style="font-size:12px; font-family:Arial; font-weight:bold;" x="10" y="20">Over 3km Workouts</text><text fill="#FFFFFF" style="font-size:4px; font-family:Arial" x="10" y="280">Runner</text><text fill="#FFFFFF" style="font-size:9px; font-family:Arial" x="10" y="290">Yiling</text><text fill="#FFFFFF" style="font-size:4px; font-family:Arial" x="65" y="280">SPECIAL TRACKS</text><rect fill="gold" height="2.6" width="2.6" x="65" y="283" /><text fill="#FFFFFF" style="font-size:3px; font-family:Arial" x="70" y="285.5">Over 5.0 km</text><rect fill="tomato" height="2.6" width="2.6" x="65" y="287" /><text fill="#FFFFFF" style="font-size:3px; font-family:Arial" x="70" y="289.5">Over 10.0 km</text><text fill="#FFFFFF" style="font-size:4px; font-family:Arial" x="120" y="280">STATISTICS</text><text fill="#FFFFFF" style="font-size:3px; font-family:Arial" x="120" y="285">Number: 10</text><text fill="#FFFFFF" style="font-size:3px; font-family:Arial" x="120" y="290">Weekly: 1.4</text><text fill="#FFFFFF" style="font-size:3px; font-family:Arial" x="141" y="285">Total: 39.2 km</text><text fill="#FFFFFF" style="font-size:3px; font-family:Arial" x="141" y="290">Avg: 3.9 km</text><text fill="#FFFFFF" style="font-size:3px; font-family:Arial" x="167" y="285">Min: 3.1 km</text><text fill="#FFFFFF" style="font-size:3px; font-family:Arial" x="167" y="290">Max: 7.4 km</text><polyline fill="none" points="59.70153405331075,87.0 59.30618554376997,86.37768580461852 57.8565743425861,85.7075006022933 57.37337060878053,85.22879645222565 56.494818365434185,84.55861003434984 54.64985865494236,83.40971738210646 52.49740565917455,81.97359863569727 52.18991237389855,81.68637449556263 51.882419088855386,81.68637449556263 51.13564968225546,81.30340877291746 49.90567654184997,78.81412592972629 50.5206631119363,77.37799676152645 49.99353176611476,76.61205987341236 49.55425564432517,77.13864158361685 47.05038175126538,78.09606175287627 46.21575712016784,77.28225470124744 45.864336223108694,76.13334884797223 46.30361234489828,75.51102397369687 45.55684293806553,73.1653324123472 44.7661459192168,72.8302329085418 43.40438994229771,73.21320375561481 42.96511382074095,73.78765959182056 42.74547575972974,74.40998615970602 41.69121306785382,73.93127346946858 42.086561577394605,73.02171836094931 41.95477874088101,72.92597564205062 41.99870635312982,72.87810427707154 42.701548147713766,69.9100725837634 42.481910086935386,68.52179491950665 43.00904143275693,66.94202697847504 42.35012725042179,66.08033371309284 40.9444436612539,64.644175664871 41.51550261932425,64.2133276151144 41.99870635312982,64.35694366425741 42.56976531120017,64.1175835642498 43.44831755431369,63.495246880920604 43.755810839589685,62.872909585770685 43.755810839589685,62.34631601208821 42.086561577394605,61.53248871862888 40.54909515194595,60.19206501398003 40.28552947891876,59.47397971927421 41.1201541100163,58.66014873381937 42.086561577394605,58.75589360995218 43.4922451665625,59.8090862914687 43.79973845160566,60.000575681682676 44.195086961146444,59.6175968432799 43.096896657021716,59.56972447223961 42.3940548626706,59.0910005622427 41.82299590460025,58.61227629031055 41.38371978304349,57.51120909146266 42.43798247445375,57.27184640348423 43.975448900135234,57.41546402708627 44.54650785843842,58.08567917323671 45.029711592243984,57.942061701614875 44.195086961146444,56.41013997764094 43.931521287886426,55.692050393496174 43.58010039082728,55.692050393496174 43.4922451665625,55.692050393496174 43.62402800307609,53.39415825140895 44.06330412463285,51.0005117347464 43.79973845160566,50.904765685787424 43.79973845160566,50.09092368558049 42.525837699184194,48.128123969130684 42.13048918964341,47.553644852072466 39.978036193875596,46.16531816730276 38.967701114015654,45.78233095980249 37.82558319787495,46.35681168414885 37.16666901577264,46.21319155191304 36.244189160410315,45.159976253518835 35.45349214132875,44.58549444319215 33.301039145560935,44.44187390914885 33.03747347276658,44.48974742408609 32.466414514463395,44.77698843786493 32.20284884166904,45.11210278922226 31.280368986539543,45.255723171227146 30.357889130944386,44.77698843786493 30.445744355442002,44.20250627992209 30.48967196745798,44.05888565903297 29.87468539713882,44.29825334245106 28.9961331540253,43.77164431946585 29.21577121480368,43.48440284951357 27.063318219035864,41.856698724848684 27.063318219035864,41.04284509312129 27.678304789355025,39.60663024941459 27.678304789355025,39.65450412995415 26.799752546008676,40.947097538097296 26.27262120018713,40.85134996881243 25.26228612056002,40.18111657787813 24.82300999877043,39.989621192915365 23.021977900294587,39.70237800700124 21.616294311359525,39.60663024941459 20.8695249047596,39.17576516082045 20.298465946456417,39.55875636514975 20.47417639521882,41.13859263347695 22.011642820900306,42.81417224620236 22.670557003002614,43.53227643686114 23.81267491914332,43.81951788510196 24.954792835284024,45.447216963162646 24.998720447765663,45.35147007444175 25.70156224211678,46.11744477896718 25.833345078630373,45.87807778338902 25.92120030289516,46.16531816730276 23.76874730689451,43.67589717719238 22.31913610571064,43.3886556638754 21.04523535305634,42.09606724086916 20.298465946456417,39.79812575009419 20.64988684374839,39.12789124407573 21.177018189802766,39.51088247721782 22.846267451765016,39.60663024941459 23.549109246348962,39.55875636514975 24.164095816435292,39.79812575009419 27.37081150431186,41.808825010666624 27.678304789355025,42.383309340744745 29.43540927558206,44.10675920301583 30.621454803971574,45.39934352063574 32.686052575241774,44.25037981313653 34.970288407523185,42.431183011387475 36.683465281967074,40.85134996881243 37.86951081012376,41.2343401593389 36.859175730496645,40.947097538097296 35.14599885628559,41.904572435247246 34.355301837436855,42.76629860443063 33.16925630904734,43.19716124923434 32.466414514463395,42.57480400160421 31.93928316864185,41.52158265019534 31.807500332361087,40.65985478670336 31.675717495847493,39.51088247721782 31.631789883598685,38.36190808255924 31.10465853777714,38.07466415804811 31.456079434836283,37.69167205586564 31.060730925295502,37.40442782721948 31.280368986539543,36.97356123995269 32.246776453917846,36.44694612373132 32.071066005155444,35.10646930593066 32.37855929043144,35.53733716410352 33.16925630904734,34.962846621347126 33.03747347276658,34.244732709776144 32.905690636252984,34.484104104107246 32.42248690221459,35.44158877647715 32.5103421267122,36.159701330412645 32.905690636252984,36.35119787376607 33.43282198207453,37.117183468304574 33.56460481835529,37.35655377648072 34.39922944945283,38.218286136572715 35.10207124403678,38.2661601221771 35.585274977842346,38.505529995891266 35.409564529312775,38.505529995891266 35.14599885628559,38.218286136572715 35.45349214132875,37.02143531967886 35.014216020004824,36.25544960930711 34.44315706170164,36.06395303690806 35.05814363178797,35.44158877647715 35.629202590091154,35.53733716410352 35.804913038620725,35.29796616791282 36.55168244522065,34.484104104107246 36.81524811824784,34.00536122487392 37.12274140352383,33.57449232402723 37.12274140352383,33.23937186499825 37.693800361594185,33.095748756837565 37.693800361594185,33.19149749923963 37.60594513709657,33.38299494056264 37.60594513709657,33.095748756837565 37.12274140352383,33.28724622708978 36.99095856701024,33.71811532351421 37.12274140352383,34.101109829731286 36.55168244522065,34.053235529048834 36.639537669718266,34.148984126746655 35.98062348738313,34.86709814687492 35.05814363178797,35.82458223996218 34.83850557124242,35.872456406534184 34.44315706170164,36.39907200058224 33.740315267350525,36.44694612373132 32.72998018749058,36.25544960930711 32.071066005155444,36.782064884668216 31.98321078089066,36.782064884668216 31.192513761809096,36.782064884668216 29.83075778489001,36.97356123995269 30.753237640485168,37.212931602378376 30.92894808901474,37.5480499578407 31.456079434836283,37.59592399420217 31.10465853777714,37.88316813588608 31.5439346593339,38.60127792006824 31.675717495847493,40.27686424856074 31.98321078089066,41.04284509312129 31.76357272011228,41.4258351676981 32.33463167818263,42.143940933281556 32.20284884166904,42.57480400160421 32.64212496345863,44.25037981313653 33.60853243083693,44.29825334245106 35.27778169279918,44.44187390914885 36.37597199669108,45.303596624638885 37.60594513709657,46.40468505426543 38.7041354412213,46.16531816730276 40.10981903015636,46.45255842077313 41.208009334048256,47.17065848456696 42.086561577394605,47.745137949008495 43.05296904500574,48.9419684925233 43.755810839589685,50.13879677344812 43.711883227108046,53.298412564443424 43.40438994229771,54.447359851852525 44.10723173664883,56.60163039586041 44.7661459192168,57.70269917655969 44.28294218541123,57.89418920391472 43.40438994229771,57.22397385496879 41.55943023157306,57.03248362510931 40.9444436612539,58.75589360995218 39.846253357362,59.42610733723268 40.24160186666995,60.04844802018488 41.51550261932425,61.48461649235105 42.13048918964341,61.91546639887383 42.701548147713766,62.154827331251 43.316534717800096,62.29844384739408 43.40438994229771,62.82503746077418 43.22867949376814,63.59099102579057 41.647285455837846,63.9260954191559 40.856588436989114,64.0218394989497 40.50516753946431,65.69735855207546 42.3940548626706,66.2718212067266 42.87725859624334,66.70266785577405 42.701548147713766,66.84628334030276 42.35012725042179,68.47392322169617 42.65762053546496,70.96324671246111 42.87725859624334,71.82493333320599 42.481910086935386,72.63874739821767 41.51550261932425,74.31424365052953 42.65762053546496,74.84082727140049 43.6679556153249,73.54830305668293 45.029711592243984,73.35681776341517 46.12790189613588,75.22379690245725 45.864336223108694,75.98973546968773 47.094309363747016,78.04819077864522 48.2803548919037,78.47902941511711 49.72996609308757,76.80354418238858 50.432807887671515,76.85141525050858 49.86174892960116,78.71838408650365 50.5206631119363,80.4417350498843 51.926346701104194,81.78211589017883 52.541333271423355,82.06933998677414 53.8591616358608,83.31397623359226 54.9573519397527,83.45758795080474 56.84623926272616,84.89370333199622 57.944429567083716,85.80324138898868" stroke="gold" stroke-linecap="round" stroke-linejoin="round" stroke-width="0.5"><title>2025-05-17 7.4km</title><desc>14504809249</desc></polyline><polyline fill="none" points="101.80650994600728,62.23399785393849 101.51356238685548,59.04284352483228 101.41591320093721,54.89433210575953 101.22061482863501,53.724236935493536 101.12296564225107,51.17129865020979 101.31826401455328,48.93747386080213 101.90415913239121,47.76737375021912 102.68535262253135,46.70364553423133 102.78300180844963,42.23597826913465 102.58770343614742,42.129605066613294 102.49005424929783,41.065872599720024 102.19710669107735,40.42763273441233 101.80650994600728,40.214886048808694 101.22061482863501,40.214886048808694 98.38878842676058,41.384992424049415 97.80289330938831,41.81048541062046 93.60397830000147,43.40608296787832 91.74864376150072,45.00167872069869 91.16274864366278,45.32079765480012 88.72151898778975,45.95903530612122 87.64737793896347,46.490899794735014 85.98734177276492,46.597272668383084 81.20253164600581,48.51198302384 76.80831826431677,49.894827775191516 76.2224231469445,50.852181039750576 76.2224231469445,51.49041618849151 76.4177215192467,52.12865104863886 76.2224231469445,55.000704345526174 76.4177215192467,55.85168197751045 77.98010849906132,57.76637977210339 78.56600361643359,60.21293428365607 73.78119349014014,62.02125445660204 73.0,63.08497112256009 73.0,65.31877351051662 73.1952983723022,65.7442592785228 73.1952983723022,66.70160178781953 73.68354430375621,68.08442870969884 75.9294755877927,71.27556258719414 76.51537070563063,72.65838502557017 77.00361663661897,73.19023944891524 77.19891500938684,73.61572284332942 80.22603978263214,77.0195853774203 81.00723327323794,77.65780868811999 81.88607594929636,78.82788400840946 83.64376130187884,79.99795835814439 85.79204339999706,80.63618032180239 87.45207956666127,80.95529119530693 89.11211573239416,80.63618032180239 89.89330922299996,80.63618032180239 90.77215189952403,81.0616614704486 92.04159132018685,81.2744019968668 94.67811934882775,82.33810414676555 95.55696202581748,82.44447431759909 95.94755877042189,82.2317339675501 96.4358047018759,82.2317339675501 97.90054249577224,82.7635847821366 99.07233273098245,82.97632505162619 105.32188065117225,83.08269517461304 106.88426763145253,82.97632505162619 108.34900542488322,83.18906528921798 112.45027124742046,83.18906528921798 114.30560578685254,82.97632505162619 115.67269439436495,82.97632505162619 116.25858951220289,82.7635847821366 116.74683544365689,82.2317339675501 118.50452079623938,79.57247688877396 119.09041591361165,78.7215135646984 121.33634719764814,74.04120610898826 122.31283906009048,70.53096532810014 122.41048824647442,68.72265606268775 122.60578661877662,68.40354242234025 122.50813743239269,67.33982976642437 122.89873417746276,65.31877351051662 122.89873417746276,63.82957231148612 123.09403254976496,62.97859949199483 122.99638336431235,62.55311288952362 123.09403254976496,61.595767565537244 122.70343580516055,59.25558737129904 122.60578661877662,57.97912381100468 122.01989150093868,55.63893761776853 121.92224231502041,54.36247078503948 121.53164556995034,52.76688562007621 121.33634719764814,49.5757098760223 121.043399638962,48.72472845832817 121.043399638962,47.661000964348204 120.55515370797366,46.06540821981616 120.7504520798102,44.15069454407785 120.45750452112406,42.980590462568216 120.65280289342627,42.342351463623345 119.09041591361165,39.57664579851553 117.91862567840144,38.08741742523853 116.16094032581896,37.13005549763329 114.79385171830654,36.81093471078202 111.47377938544378,37.449176212307066 107.27486437605694,38.51291140646208 104.1500904164277,39.04477870266419 102.97830018121749,39.68301919347141 101.41591320093721,40.00213933060877 99.5605786619708,40.853126010042615 98.38878842676058,41.59773893340025 97.50994575070217,41.704112176201306 94.18987341783941,43.299709853716195 93.11573236901313,43.618829172686674 91.16274864366278,45.00167872069869 87.64737793896347,46.278154023573734 85.20614828169346,46.91639124159701 84.03435804741457,46.70364553423133 83.3508137431927,47.341882559936494 82.86256781220436,47.55462817091029 81.49547920469195,47.87374652735889 79.83544303802773,48.72472845832817 76.80831826431677,49.78845514997374 76.1247739600949,50.21394560241606 75.83182640140876,50.74580848682672 76.1247739600949,52.87325802037958 75.9294755877927,54.57521533744875 76.51537070563063,55.85168197751045 77.58951175399125,56.702659095753916 77.98010849906132,57.34089159790892 78.27305605821311,57.97912381100468 78.66365280281752,60.00019058142789 79.15189873427153,60.21293428365607 79.5424954793416,60.106562436558306 80.81193490047008,59.25558737129904 84.81555153708905,57.447263653273694 85.20614828169346,57.447263653273694 85.79204339999706,57.87275179545395 85.79204339999706,61.17028054629918 86.08499095821753,63.616829154547304 86.08499095821753,65.31877351051662 86.2802893309854,66.38248769007623 86.18264014506713,66.59523042989895 86.37793851736933,69.78636767587159 86.2802893309854,72.76475592632778 86.7685352624394,74.14757690543775 87.25678119342774,74.67943076707888 88.62386980094016,74.99854298809078 92.62748643802479,76.48773239762522 93.31103074131534,76.48773239762522 94.38517179060727,76.91321479727048 95.55696202581748,77.1259559490718 98.38878842676058,77.23232651303988 102.19710669107735,77.1259559490718 102.49005424929783,76.91321479727048 102.68535262253135,76.48773239762522 102.68535262253135,76.06224986957386 103.07594936713576,74.99854298809078 102.78300180844963,74.46668924647383 102.97830018121749,72.97749770362861 102.78300180844963,72.33927227556705 102.49005424929783,71.91378849651664 101.31826401455328,71.48830458906014 101.22061482863501,68.93539844930638 101.02531645586714,68.40354242234025 100.92766726948321,67.55257236154284 97.4122965647839,67.12708713882603 89.01446654647589,67.23345845669974 86.2802893309854,67.02071581326891 85.98734177276492,66.27611630852334 86.08499095821753,64.04231543617789 85.88969258591533,63.723200737149455 85.98734177276492,62.76585620699916 85.88969258591533,58.51098376815207 86.08499095821753,57.87275179545395 86.08499095821753,55.000704345526174 86.2802893309854,53.29874754231423 86.86618444882333,53.08600279747043 88.91681736009195,53.19237517367583 90.96745027182624,53.08600279747043 92.822784810327,53.19237517367583 96.53345388825983,53.19237517367583 98.19349005445838,53.29874754231423 99.5605786619708,53.19237517367583 100.83001808356494,52.76688562007621 101.22061482863501,50.74580848682672 101.12296564225107,50.63943592598662 101.31826401455328,49.043846550164744 102.68535262253135,46.17178112559486 102.58770343614742,41.172245882451534 102.39240506384522,40.00213933060877 102.58770343614742,39.36389898415655 103.1735985535197,39.04477870266419 106.20072332769632,38.72565834899433 111.0831826403737,37.76829685480334 114.0126582281664,37.34280264854897 116.25858951220289,37.66192331525963 117.52802893379703,38.30016443156637 118.40687160985544,39.36389898415655 119.77396021736786,41.704112176201306 120.35985533474013,43.299709853716195 120.45750452112406,44.15069454407785 121.043399638962,46.06540821981616 121.14104882488027,49.3629645697074 121.33634719764814,50.320318195270374 121.2386980112642,50.74580848682672 121.72694394225255,52.022278592106886 122.11754068778828,52.660513211390935 122.41048824647442,52.979630412883125 122.89873417746276,53.08600279747043 125.33996383426711,52.87325802037958 126.8047016276978,52.554140794905834 127.0,52.660513211390935" stroke="#4DD2FF" stroke-linecap="round" stroke-linejoin="round" stroke-width="0.5"><title>2025-04-25 3.9km</title><desc>14282101435</desc></polyline><polyline fill="none" points="181.10543623007834,76.00010726519395 178.65842913184315,76.16677271574736 178.35255324374884,76.00010726519395 178.199615300633,66.33348955854308 177.74080146942288,64.50016072927974 176.67023586295545,62.833496834966354 174.83498053904623,61.33349825255573 172.38797343987972,60.50016526610125 169.63509045355022,60.50016526610125 167.9527730718255,61.16683168034069 165.96457980480045,62.66683037637267 164.89401419833302,64.50016072927974 164.4352003671229,66.16682336397935 164.58813831117004,80.83340022573248 165.199890085496,82.83338042034302 166.1175177488476,84.3333643762162 168.10571101587266,85.83334731159266 169.78802839666605,86.50000606616959 171.92915960866958,86.666670723469 173.61147698946297,86.33334139653016 175.59967025741935,85.33335311315022 176.8231738070026,84.16669954266399 177.58786352537572,83.16671027662233 178.35255324374884,80.666735127219 178.199615300633,75.0001142952824 178.35255324374884,67.16682034020778 177.74080146942288,64.33349439688027 176.8231738070026,62.500163905206136 174.22322876378894,60.50016526610125 171.47034577745944,60.16683198302053 169.48215250950307,60.33349863102194 167.4939592415467,61.33349825255573 166.1175177488476,62.500163905206136 164.7410762552172,64.66682704968844 164.28226242400706,66.33348955854308 164.1293244799599,79.83340944803786 164.89401419833302,83.00004535506014 165.81164185982198,84.50002919696271 167.79983512870967,86.00001201906707 170.85859400313348,86.666670723469 172.54091138392687,86.666670723469 174.68204259499907,86.00001201906707 176.36435997579247,84.83335880120285 177.74080146942288,83.00004535506014 178.35255324374884,81.5000604923116 178.35255324374884,65.66682470636442 178.199615300633,64.50016072927974 177.1290496941656,62.66683037637267 175.90554614458233,61.66683135915082 173.45853904541582,60.66683188849129 171.77622166555375,60.33349863102194 169.48215250950307,60.50016526610125 167.64689718466252,61.33349825255573 165.96457980480045,62.66683037637267 164.7410762552172,65.00015965208877 164.28226242400706,67.00015420955606 164.4352003671229,79.66674427408725 164.1293244799599,81.5000604923116 166.72926952224225,85.16668835480232 168.2586489599198,86.33334139653016 170.70565605908632,87.0 173.45853904541582,86.666670723469 175.90554614458233,85.5000178583432 177.28198763821274,84.0000346963061 178.199615300633,82.00005555979442 178.505491187796,78.83341821667273 178.505491187796,73.83345525711775 178.35255324374884,66.16682336397935 178.04667735658586,63.3334961355431 177.4349255822599,62.500163905206136 175.90554614458233,61.500164812314324 173.45853904541582,60.50016526610125 171.92915960866958,60.16683198302053 170.09390428476036,60.33349863102194 167.9527730718255,61.00016509590205 166.27045569196343,62.500163905206136 165.35282802954316,63.83349532308057 164.7410762552172,65.16682593466248 164.4352003671229,66.5001557400683 164.58813831117004,67.66681865847204 164.28226242400706,80.33340489328839 164.4352003671229,81.5000604923116 165.65870391763747,84.3333643762162 167.03514541126788,85.66668259107973 168.2586489599198,86.50000606616959 170.55271811503917,87.0 172.23503549676389,87.0 174.3761667078361,86.33334139653016 176.36435997579247,84.83335880120285 177.58786352537572,83.33337518572807 178.35255324374884,81.33339544408955 178.505491187796,80.1667397574056 178.35255324374884,65.66682470636442 177.74080146942288,63.83349532308057 176.36435997579247,62.16683092445601 173.30560110136867,60.50016526610125 172.08209755271673,60.33349863102194 170.09390428476036,60.33349863102194 167.4939592415467,61.33349825255573 165.81164185982198,63.00016328098718 164.28226242400706,65.83349093818106 164.4352003671229,75.50011083693244 164.1293244799599,77.16676515655126 164.4352003671229,80.666735127219 164.89401419833302,82.33338554168586 165.50576597359031,83.66670496633742 166.57633157912642,84.83335880120285 168.5645248470828,86.00001201906707 168.71746279112995,85.66668259107973 168.41158690396696,85.16668835480232 167.03514541126788,84.66669400560204 165.96457980480045,83.66670496633742 164.7410762552172,83.33337518572807 164.4352003671229,82.16672055714298 163.97638653591275,81.6667255271459 161.6823173807934,81.33339544408955 161.52937943674624,81.00006531120744 161.22350354958326,81.00006531120744 160.9176276633516,81.5000604923116 160.61175177432597,81.16673038399313 160.61175177432597,80.83340022573248 160.9176276633516,80.666735127219 161.98819326795638,80.50007001683116 162.59994504321367,80.1667397574056 161.22350354958326,78.16675714403391 161.6823173807934,78.00009184423834 161.3764414936304,72.83346130454447 161.52937943674624,72.66679560195189 161.98819326795638,71.50013532931916 161.98819326795638,69.66681079659611 161.52937943674624,68.66681495425291 161.83525532484055,65.16682593466248 160.76468971837312,63.166829714900814 160.15293794404715,60.00016532256268 159.5411861697212,59.00016509613488 159.5411861697212,57.666830755304545 159.23531028162688,55.83349471981637 159.38824822567403,52.166818074998446 159.23531028162688,50.000142646138556 160.15293794404715,48.166800235630944 160.76468971837312,47.666797495330684 162.90582093037665,47.1667946416419 163.0587588744238,46.50012399384286 163.0587588744238,45.66678540036082 162.4470070991665,45.00011429900769 162.4470070991665,44.50011084054131 163.0587588744238,43.33343566348776 162.75288298726082,43.16676773049403 161.3764414936304,43.000099785393104 160.61175177432597,43.66677149152383 159.69412411283702,43.833439386216924 159.08237233851105,44.666778672952205 158.3176826192066,45.16678209323436 158.16474467609078,45.66678540036082 157.40005495771766,45.8334531445289 153.11779253277928,49.000137883936986 152.35310281533748,50.000142646138556 151.28253720980138,50.500144857214764 148.83553011063486,52.500152567750774 148.37671627942473,52.00015081022866 148.22377833537757,51.666816242039204 147.45908861793578,51.16681429557502 147.15321272984147,50.500144857214764 146.69439889863133,50.16681006248109 146.08264712430537,50.500144857214764 144.8591435737908,52.00015081022866 143.63564002513885,53.166821401333436 142.25919853243977,53.833490033168346 141.34157086908817,54.66682553954888 139.3533776011318,55.83349471981637 138.89456376992166,56.50016254535876 139.81219143234193,56.333495607599616 144.5532676866278,51.833483532303944 146.38852301146835,50.66681223572232 148.9884680537507,48.166800235630944 152.20016487129033,45.8334531445289 153.88248225301504,43.833439386216924 155.41186168882996,43.000099785393104 156.32948935125023,42.000091847847216 157.09417907055467,41.83342381438706 161.52937943674624,38.5000604953384 161.6823173807934,37.83338722633198 162.59994504321367,36.66670852142852 163.21169681847095,35.00002358597703 163.82344859279692,34.166680645546876 163.82344859279692,33.50000606663525 163.97638653591275,33.0" stroke="#4DD2FF" stroke-linecap="round" stroke-linejoin="round" stroke-width="0.5"><title>2025-04-24 3.1km</title><desc>14268683593</desc></polyline><polyline fill="none" points="62.04910267237574,147.0 61.47515639895573,146.2702984600328 60.75772355706431,144.9151364088175 60.23160613956861,144.39391952607548 59.3706867294386,144.13331093697343 58.940227024490014,143.71633698948426 58.27062303898856,143.2993627898977 57.74450562126003,142.77814468584256 57.170559347840026,142.36116991902236 56.88358621113002,141.9963167909882 56.50095536210574,141.68358538491884 55.8791802325286,141.42297577153658 55.64003595197573,141.16236605943413 55.35306281526573,141.0581221470493 55.01826082216576,141.16236605943413 54.06168369972147,140.84963427507319 53.870368275558576,140.6411463401164 53.5355662824586,140.06780419364804 53.2485931457486,139.85931602225173 53.009448865195736,139.4423394901678 51.813727462198585,139.12960692564957 51.23978118877858,138.66050781309605 50.42669063457288,137.61806419782806 49.94840207346715,136.94047500292072 49.85274436115287,136.73198588582454 50.187546354020014,135.16831549844937 50.42669063457288,134.75133612961508 50.522348346654326,134.2301115638693 50.570177203044295,133.91737663536333 50.3310329222586,133.50039651000407 49.66142893675715,133.50039651000407 49.42228465620428,134.38647897506598 48.32222096505575,135.79378407890908 47.84393240395002,135.9501511354465 47.60478812362999,135.74166171898833 47.269986130530015,135.16831549844937 46.50472443271428,134.8034585645073 46.26558015216142,133.96949913341086 45.83512044698,133.23978380358312 45.73946273443289,132.87492584914435 45.73946273443289,132.51006770151434 45.595976166194305,132.35369986499427 45.643805022351444,131.98884144157637 45.54814731027,131.72822816390544 45.11768760508858,131.363369409577 45.213345317402855,130.8421422826941 44.63939904375002,130.32091476180358 44.06545277056284,130.06030085368548 43.6828219210729,130.00817806011764 43.34801992843859,130.11242364306236 43.061046791728586,130.37303753162269 42.726244798861444,130.89426501304843 42.58275823062286,131.51973747077864 42.295785093680024,131.6761054964736 41.865325388731435,131.72822816390544 41.62618110817857,131.62398282514187 40.95657712244429,130.99851046217373 41.004405978368595,130.68577406776603 41.57835225202143,129.74756403366337 42.1044696692843,129.1742128288024 42.3914428059943,128.54873824340757 42.48710051830858,127.81901717651635 42.295785093680024,127.50627934001386 42.247956237755716,127.24566436785972 42.48710051830858,126.72443412803113 42.343613950069994,125.21286420430988 42.48710051830858,124.53526281798258 42.247956237755716,124.11827701836592 42.295785093680024,123.75341423676582 42.20012738159858,123.49279784609098 42.58275823062286,123.02368809451582 42.678415942937136,122.71094808273483 42.63058708678,122.45033129805233 42.3914428059943,122.24183779925806 42.05664081312716,122.18971441464964 41.57835225202143,122.29396117985016 41.29137911531143,122.13759102619952 40.573946273420006,121.98122083710041 40.239144280552864,121.82485061243642 40.143486568238586,121.40786317369202 40.33480199286714,120.78238154237624 40.239144280552864,120.521764028701 40.33480199286714,120.36539347306825 40.669603985734284,120.10477580159204 41.76966767664999,120.10477580159204 42.48710051830858,119.89628159342101 42.82190251117572,119.6877873223275 43.061046791728586,119.11442775162868 43.34801992843859,118.74956232175464 43.25236221612431,118.22832565871067 42.91756022349,117.6549648741493 41.482694539939985,117.23797491315054 40.86091941013001,116.87310849042842 40.90874826628715,116.82098469982157 40.621775129577145,116.66461330495076 40.0,115.93487965932582 39.808684575604275,115.5178886578069 39.56954029505141,115.30939306254731 39.52171143866144,114.99664955143817 39.66519800713286,114.78815379843581 40.239144280552864,114.52753401856171 40.621775129577145,113.90204614505637 40.669603985734284,113.95417015609564 40.573946273420006,113.27655770385172 40.71743284165859,112.80744100053562 40.71743284165859,112.59894458559575 40.76526169804856,112.59894458559575 41.33920797146857,112.39044810744235 42.295785093680024,112.59894458559575 42.58275823062286,112.8595650945208 43.2045333602,112.80744100053562 43.87413734593429,113.27655770385172 43.921966202091426,113.01593735255301 44.352425907272846,113.0680614306475 44.68722789990716,113.01593735255301 44.59157018782571,113.0680614306475 44.49591247551143,112.8595650945208 44.304597050882876,112.28619984473335 43.969795058248565,111.97345496213529 43.63499306538142,111.45221317571122 43.491506496910006,110.93097099522129 43.2045333602,110.56610123434803 43.108875648118556,110.51397696702043 43.15670450381003,110.4618526956765 43.01321793580428,109.6278638196527 43.25236221612431,108.48112746753031 43.87413734593429,107.02164207870374 44.01762391417287,105.56215359963244 42.82190251117572,103.3207902762806 41.004405978368595,101.49641940044239 39.90434228768572,100.87091970280744 38.565134316217154,100.40179455716861 38.42164774797857,100.2454194376478 38.182503467425704,99.88054402085254 38.086845755111426,99.3592930904124 37.46507062553428,98.36891523672966 37.51289948169142,97.43066122051096 37.41724176937714,96.44028059573611 37.51289948169142,96.12752852379344 37.17809748859145,95.34564772318117 36.891124352114275,95.08502059255261 36.508493503089994,94.98076971282717 36.65198007132858,95.03289515466895 36.65198007132858,94.82439336349489 36.31717807869427,94.72014244418824 34.73882582644001,94.72014244418824 34.404023833805695,95.34564772318117 34.11705069686286,95.71052554057678 33.925735272467136,96.5445312547381 33.590933279599994,96.7530325257685 32.82567158155143,96.85728313744767 32.53869844484143,97.01365902560065 32.347383020445704,97.27428542694543 32.25172530813143,97.63916222343687 31.62995017855428,98.05616403976455 31.29514818568714,98.73379145358922 30.91251733689569,98.73379145358922 30.529886487638578,98.83804176578997 29.477651653112844,98.5774159557186 29.429822796955705,98.6295411256142 29.57330936519429,98.83804176578997 29.57330936519429,99.09866747737397 29.381993940798566,99.20291773439385 29.095020804088563,99.25504285708303 28.712389955064282,99.09866747737397 28.186272537568584,98.68166629166808 28.568903386825696,98.1604144545854 28.568903386825696,98.42104042234132 28.090614825487137,98.31679004704347 27.755812832619995,98.10828924918314 27.660155120305717,97.84766316314926 27.325353127438575,97.7434127011802 26.65574914170429,97.22216015454615 26.225289436755702,96.7530325257685 25.173054602229968,95.1892714567366 24.64693718473427,94.72014244418824 23.499044637661427,93.93826004723087 22.925098364474252,93.67763238440966 21.633719248929992,93.31275349098723 21.155430687824264,93.36487905896502 20.86845755111426,93.52125573944068 20.581484414404258,93.46913018327905 20.53365555801429,93.36487905896502 20.198853565379977,93.26062791910954 19.768393860198557,93.31275349098723 19.337934155017138,93.26062791910954 18.38135703257285,93.0 18.04655503993854,93.15637676324695 17.95089732739143,93.67763238440966 17.9987261837814,94.35526410263265 18.76398788159713,96.17965387896402 19.385763011407107,96.5445312547381 19.816222716588527,96.7530325257685 20.05536699690856,97.22216015454615 20.246682421537116,97.27428542694543 20.629313270561397,97.79553793405648 20.724970982642844,97.69128746417118 20.86845755111426,97.79553793405648 21.39457496837713,97.84766316314926 21.825034673558548,98.05616403976455 22.11200781003572,98.73379145358922 23.690360062289983,100.2454194376478 24.790423752972856,100.97516969189746 25.747000875417143,101.44429444725392 26.177460580598563,101.80916903633624 26.894893422489986,102.01766871480504 26.990551134804264,102.12191853037803 27.373181983595714,102.17404343234375 27.660155120305717,102.53891763510182 27.99495711317286,102.74741709278896 28.473245674511418,103.26866546116071 28.616732242750004,103.63353908457793 28.568903386825696,105.24940566642908 28.855876523302868,105.66640287928749 28.76021881122142,105.77065214293543 28.76021881122142,105.66640287928749 28.616732242750004,106.29189822537592 28.76021881122142,107.07376661000308 29.23850737232715,107.75138515932485 29.477651653112844,107.69926067907363 29.62113822135143,107.5428872150951 29.334165084874257,107.80350963555975 29.477651653112844,107.9598830404575 29.477651653112844,108.1162564100232 29.716795933665708,108.01200750085991 29.860282502137125,108.1162564100232 30.43422877555713,108.22050530317938 30.721201912267134,108.48112746753031 31.24731932953,109.26299336896045 31.62995017855428,109.57573948136996 32.44304073275998,109.26299336896045 32.53869844484143,109.21086900314549 32.58652730099857,109.05449588195188 32.63435615738854,109.10662025969941 32.87350043770857,109.05449588195188 33.06481586233713,109.10662025969941 33.3517889988143,109.36724208894884 34.356194977648556,109.888485451811 35.07362781930715,109.99273407715373 35.4562586680986,109.6278638196527 35.79106066119857,110.56610123434803 36.12586265406571,110.77459826419363 36.843295495957136,111.71283411810873 37.273755201138556,112.0777032719925 37.94335918687284,112.28619984473335 38.517305460292846,112.39044810744235 38.565134316217154,112.44257223291788 38.89993630931713,112.39044810744235 40.09565771231428,111.764958294807 40.47828856110573,111.97345496213529 40.81309055374004,112.44257223291788 40.90874826628715,112.65106869518058 40.86091941013001,113.12018550490029 40.47828856110573,114.21479015267687 40.28697313671,114.42328607913805 39.378224870422855,114.84027774253627 39.23473830195144,115.04877347976435 39.23473830195144,115.25726915383711 39.56954029505141,115.62213643180439 40.09565771231428,116.0391273702262 40.28697313671,116.40399423439521 40.669603985734284,116.82098469982157 41.434865683550015,117.29009867203422 41.913154244888574,117.49859366827877 42.15229852567427,117.55071740766289 42.295785093680024,117.6549648741493 43.15670450381003,117.75921232503606 43.44367764075287,118.17620197072392 43.491506496910006,118.74956232175464 43.25236221612431,119.11442775162868 42.295785093680024,119.89628159342101 41.434865683550015,120.10477580159204 40.5261174174957,120.00052870548097 40.191315424395725,120.15689934371039 40.28697313671,120.41751699551241 40.09565771231428,121.51211005705409 40.191315424395725,122.0333442374831 42.05664081312716,122.24183779925806 42.48710051830858,122.45033129805233 42.63058708678,123.02368809451582 42.53492937446572,123.80553750321269 42.1044696692843,124.84800200210884 42.247956237755716,125.4213568046689 42.43927166238427,125.62984934193082 42.48710051830858,126.1510804091813 42.343613950069994,126.51594192185439 42.43927166238427,127.19354136160109 42.3914428059943,127.61052530119196 42.58275823062286,127.92326309048804 42.58275823062286,128.23600073781563 41.76966767664999,129.38270423124777 41.434865683550015,130.06030085368548 41.19572140322998,130.32091476180358 41.14789254684001,130.79001954832347 41.482694539939985,130.94638773956103 41.62618110817857,131.31124671455473 41.865325388731435,131.46761478763074 42.48710051830858,130.94638773956103 42.53492937446572,130.37303753162269 42.63058708678,130.2166692102328 42.58275823062286,130.2166692102328 42.678415942937136,129.95605526282452 42.91756022349,129.90393246139865 42.96538907964714,129.95605526282452 43.39584878482856,129.53907274169615 44.06545277056284,129.38270423124777 44.68722789990716,129.43482707202202 45.06985874869861,129.5911955704796 45.40466074179858,129.5911955704796 45.50031845388003,129.90393246139865 45.595976166194305,130.00817806011764 45.643805022351444,130.26879198802635 45.595976166194305,130.26879198802635 45.88294930313714,130.89426501304843 45.88294930313714,131.15487860603025 46.409066720632836,132.51006770151434 46.409066720632836,132.97917099873303 46.64821100095287,133.65676408662694 47.12649956229143,134.38647897506598 47.46130155492574,134.75133612961508 48.37004982121289,135.1161930912058 48.561365246074274,135.01194826466963 48.65702295815572,134.64709124795627 49.374455800047144,133.2919063528534 50.09188864170574,132.97917099873303 50.8571503397543,133.23978380358312 51.33543890109286,133.65676408662694 51.09629462030716,134.8034585645073 51.09629462030716,135.16831549844937 50.8571503397543,135.53317223931663 50.76149262744002,135.53317223931663 50.71366377128288,135.6374169869814 50.66583491512574,136.47137440083316 51.28761004493572,137.67018641612958 51.71806974988431,138.13928620243678 51.95721403043717,138.50414137123153 52.244187167380005,138.71262995246798 52.86596229672432,138.86899634706788 53.58339513884857,139.2859732256038 53.72688170708716,139.5465836468502 53.72688170708716,139.8071939694346 54.06168369972147,139.96356011577882 54.63562997360714,140.38053633266827 55.01826082216576,140.58902434649644 55.49654938373715,140.6411463401164 56.59661307442002,141.0581221470493 57.84016333380714,141.78782920271624 58.031478757970035,142.2048043163377 58.65325388778001,142.77814468584256 60.42292156443,143.97694573621266 60.66206584475003,144.28967610222753 61.04469669377431,145.27998799231136" stroke="#4DD2FF" stroke-linecap="round" stroke-linejoin="round" stroke-width="0.5"><title>2024-09-09 4.6km</title><desc>14525941635</desc></polyline><polyline fill="none" points="126.89306930708699,141.8782908434514 127.0,141.52871497243177 126.83960396028124,140.4217236682889 126.5722772278823,140.18867266486632 126.25148514844477,140.24693542247405 125.98415841604583,140.4217236682889 125.93069306947291,140.59651187469717 125.77029702975415,141.12087625591084 125.82376237632707,141.52871497243177 125.60990099026822,142.0530787195894 125.34257425740361,142.34439175826265 124.64752475265414,143.5096428123652 124.4871287131682,143.6261678209994 123.952475247439,143.5096428123652 123.04356435639784,142.57744210993405 121.92079207929783,141.82002820936032 121.65346534643322,141.4704523118562 121.06534653459676,141.23740162554896 120.74455445539206,141.0043508685776 120.63762376247905,140.4217236682889 120.1029702972155,139.43125641724328 119.51485148514621,138.73210229736287 118.23168316856027,138.7903651649831 117.69702970283106,138.6738394255517 115.87920792074874,138.49905078328447 114.27524752472527,138.14947337983176 113.2594059407711,137.85815875581466 112.6712871287018,137.7998958178796 111.01386138610542,137.2755291776848 107.8594059406314,136.8094251982402 106.46930693066679,136.45984702860005 105.98811881197616,136.22679482755484 105.72079207934439,135.9354794768733 105.61386138619855,135.5859009110718 105.72079207934439,134.01279540266842 107.43168316828087,132.9057933058357 108.44752475246787,132.14836990245385 109.08910891111009,131.4492091772845 109.35643564374186,131.33268232818227 110.26534653478302,131.27441889693728 110.74653465347365,131.4492091772845 112.29702970315702,131.56573600886622 113.04554455471225,131.4492091772845 113.3128712871112,131.2161554613267 113.52673267340288,130.22567638242617 113.09900990081951,129.5265139132971 112.88514851476066,128.82735081022838 112.93861386156641,128.53603266330902 112.93861386156641,127.19596776989056 113.04554455471225,126.61333013308467 113.2594059407711,126.26374733966077 113.2594059407711,125.79763670166722 113.09900990081951,125.04020631400635 112.40396039607003,124.04971929936437 109.1960396040231,120.55387260357384 108.7683168319054,120.43734410731122 107.37821782194078,120.495608357538 107.11089108907618,120.43734410731122 106.84356435621157,120.20428706204984 105.8277227722574,118.33982816233765 104.59801980201155,117.17453905992443 103.95643564336933,116.18404193769675 102.99405940598808,115.13527889171382 101.49702970311046,113.67866118234815 100.10693069314584,111.63939176482381 99.03762376238592,109.89144225529162 98.2356435644906,108.95920089597348 97.54059405927546,108.37654947378905 97.32673267344944,108.02695840911474 97.11287128692493,107.26951055822428 96.47128712874837,106.68685785873095 95.66930693085305,105.63808188959956 94.92079207929783,105.40502036933322 93.904950494878,105.57981651619775 93.31683168304153,105.52155113831395 91.76633663359098,104.9971625393373 90.5366336631123,105.05542795668589 87.91683168313466,104.47277358337305 87.22178217815235,104.18144623166882 86.04554455447942,104.064915260009 85.35049504949711,104.1231807480799 85.02970297029242,103.89011876960285 84.12079207901843,103.71532223955728 83.8000000002794,103.42399460147135 83.74653465347365,102.02562040532939 83.26534653455019,101.4429637415451 82.73069306928664,101.26816665648948 81.60792079218663,101.26816665648948 81.07326732669026,101.09336953173624 80.21782178222202,101.03510381473461 79.73663366329856,100.86030663712882 79.52277227723971,100.68550942005822 79.1485148514621,99.57845945697045 78.66732673253864,98.82100330293179 77.75841584173031,97.88874855294125 77.00990098994225,97.71395066176774 76.63564356439747,97.30608876154292 76.31485148519278,97.1312907381216 75.83366336626932,97.1895567504107 75.3524752475787,97.1312907381216 74.76435643574223,97.36435476056067 73.69504950498231,97.24782275804318 73.37425742577761,97.07302472152514 73.0,96.37383217905881 73.53465346526355,97.01475870062131 74.015841584187,97.1895567504107 75.3524752475787,97.1895567504107 76.47524752491154,97.07302472152514 77.063366336748,97.24782275804318 77.59801980177872,97.59741871227743 77.91881188098341,98.18007828347618 78.45346534671262,98.64620562334312 79.41584158409387,100.04458595108008 80.21782178222202,100.86030663712882 80.75247524748556,101.09336953173624 81.82178217824548,100.74377516342793 82.30297029716894,100.74377516342793 82.99801980191842,101.1516352443723 83.42574257426895,101.67602645984152 83.42574257426895,102.4334798079799 83.69306930690072,104.29797718545888 83.58613861375488,104.58930449333275 83.2118811882101,105.23022418288747 83.31881188135594,106.33726602769457 83.6396039603278,106.91991899133427 83.26534653455019,107.7356324007269 82.73069306928664,108.37654947378905 82.08910891087726,108.5513449467253 80.8594059406314,109.25052644184325 79.68316831695847,110.53235753561603 78.8277227722574,111.05674236873165 77.8118811880704,111.81418649776606 76.74257425754331,112.39683532121126 76.42178217810579,112.86295406275894 76.3683168317657,113.56213164678775 76.63564356439747,114.61089683347382 77.00990098994225,115.13527889171382 77.27722772280686,115.7179252046044 78.18613861384802,116.65015838912223 78.93465346517041,118.04850605200045 79.46930693066679,118.68941454956075 79.95049504959024,119.79643706302159 80.91287128720433,120.90345798654016 82.46336633665487,123.05923101189546 83.9603960395325,125.3897896623821 84.54851485136896,126.55506634514313 84.92277227714658,126.7881214703666 85.51089108898304,127.3124952444341 86.25940594053827,128.41950537380762 87.00792079232633,129.00214164546924 87.32871287106536,129.17693244107068 87.5960396041628,129.17693244107068 89.30693069309928,127.72034126642393 90.16237623780034,127.19596776989056 90.8039603959769,126.55506634514313 91.23168316832744,126.3220111495466 91.55247524753213,125.68110899825115 92.1405940593686,125.15673411433818 92.35445544566028,125.15673411433818 92.72871287120506,124.80715066031553 93.53069306933321,124.45756704779342 94.01188118802384,123.99145531759132 94.92079207929783,123.35055122850463 95.40198019798845,123.23402315500425 95.93663366348483,123.40881525859004 96.09702970297076,123.58360732253641 96.09702970297076,123.70013534318423 95.93663366348483,123.75839934684336 96.09702970297076,123.75839934684336 96.52475247532129,124.10798327665543 96.31089108902961,123.8749273410649 96.04356435639784,123.8749273410649 96.15049504954368,123.81666334613692 96.47128712874837,124.10798327665543 96.8990099010989,125.04020631400635 97.43366336636245,125.62284513982013 97.91485148505308,125.91416438762099 98.07524752477184,126.61333013308467 98.60990099026822,127.3124952444341" stroke="#4DD2FF" stroke-linecap="round" stroke-linejoin="round" stroke-width="0.5"><title>2024-08-26 3.2km</title><desc>14305881935</desc></polyline><polyline fill="none" points="142.45762711949646,97.97384724603035 143.37288135662675,97.47513673442882 143.6779661020264,97.47513673442882 142.45762711949646,99.30374139000196 143.37288135662675,100.13492482202128 143.52542372886091,100.96610793913715 139.25423728860915,104.78954623336904 137.88135593291372,107.11685324495193 137.1186440680176,107.78179765259847 135.74576271139085,108.28050582658034 135.593220340088,108.77921388763934 136.20338983088732,110.44157327408902 133.61016949173063,112.9351099972846 133.0,114.26499509310815 133.0,115.09617287025321 133.45762711856514,116.5922920765588 135.593220340088,120.41570320166647 137.42372881341726,123.07546354248188 139.7118644071743,127.23133263469208 141.8474576268345,129.0599125472363 145.05084745772183,133.04953616962302 145.81355932261795,133.71447273623198 147.18644067831337,133.71447273623198 148.4067796608433,134.3794091019081 149.62711864430457,134.3794091019081 156.796610170044,141.19499525881838 158.16949152573943,141.5274623357691 160.0,141.19499525881838 161.37288135569543,140.6962945489213 162.4406779659912,139.86512644775212 163.50847457628697,137.7040879150154 163.9661016948521,135.21057927655056 164.2711864411831,130.8884909391636 164.1186440680176,127.0650980216451 164.57627118658274,119.58452743594535 164.2711864411831,118.08841026516166 163.50847457628697,116.5922920765588 162.4406779659912,115.92735033272766 160.76271186489612,115.59487938520033 157.7118644071743,115.92735033272766 156.33898305147886,116.92476287309546 154.9661016948521,118.75335135508794 154.3559322040528,120.41570320166647 154.05084745772183,122.0780537915416 152.8305084751919,136.3742169928737 153.13559322059155,137.87032172363251 153.74576271232218,139.0339580324944 154.81355932168663,140.19759372598492 156.18644067831337,140.86252813157625 158.3220338979736,141.36122880375478 159.84745762776583,141.19499525881838 161.22033898346126,140.6962945489213 162.4406779659912,139.86512644775212 163.9661016948521,138.03655551967677 164.72881355974823,135.70928123046178 165.33898305147886,122.41052375908475 165.18644067738205,120.41570320166647 164.8813559319824,118.58711610175669 164.42372881341726,117.5897043151781 163.3559322040528,116.09358578757383 161.22033898346126,115.42864389263559 159.08474576380104,115.92735033272766 157.4067796608433,116.75852748134639 155.57627118658274,118.58711610175669 154.20338983088732,121.41311370639596 152.8305084751919,127.0650980216451 152.52542372886091,131.55342815921176 152.6779661020264,136.2079830711009 152.98305084742606,137.5378540934762 154.05084745772183,139.0339580324944 155.88135593291372,140.36382734624203 157.86440677940845,141.36122880375478 159.69491525460035,141.36122880375478 161.6779661020264,140.5300609540427 163.3559322040528,138.8677243118873 164.1186440680176,137.3716202598298 164.57627118658274,135.37681327364407 164.2711864411831,128.2287400480127 164.57627118658274,122.74299367587082 165.0338983060792,119.08582182554528 164.8813559319824,117.75593964441214 164.42372881341726,116.92476287309546 163.20338983088732,115.92735033272766 162.4406779659912,115.59487938520033 159.69491525460035,115.76111486530863 157.4067796608433,116.75852748134639 155.42372881434858,118.42088083527051 154.05084745772183,120.58193831751123 153.4406779659912,123.57416824821848 153.2881355928257,125.73522066627629 153.13559322059155,136.8729186828714 153.5932203391567,138.53525683272164 154.50847457628697,139.86512644775212 156.18644067831337,141.02876170130912 157.86440677940845,141.36122880375478 159.69491525460035,141.19499525881838 161.52542372886091,140.5300609540427 162.89830508548766,139.2001917407615 164.1186440680176,137.3716202598298 164.57627118658274,135.0443452668842 164.72881355974823,129.3923814590089 165.64406779687852,121.57934874692 165.49152542464435,119.7507626140723 164.72881355974823,117.92217496118974 162.89830508548766,116.09358578757383 161.6779661020264,115.59487938520033 159.54237288143486,115.76111486530863 158.16949152573943,116.25982122984715 156.0338983051479,117.75593964441214 154.9661016948521,118.91958659666125 154.3559322040528,120.74817342043389 152.98305084742606,128.7274435851723 152.52542372886091,135.5430472579319 152.8305084751919,137.87032172363251 153.5932203391567,139.53265911957715 154.9661016948521,140.5300609540427 156.0338983051479,140.86252813157625 158.01694915257394,141.19499525881838 160.30508474633098,141.02876170130912 161.8305084751919,140.36382734624203 162.74576271232218,139.69889278989285 163.66101694945246,138.53525683272164 164.2711864411831,137.20538641361054 164.72881355974823,134.5456431619823 164.8813559319824,125.23651645053178 165.796610170044,120.91440851055086 165.796610170044,119.25205704115797 165.33898305147886,117.75593964441214 164.42372881341726,116.5922920765588 163.05084745772183,115.92735033272766 161.37288135569543,115.59487938520033 159.54237288143486,115.92735033272766 156.796610170044,117.25723361910786 155.42372881434858,118.58711610175669 154.3559322040528,120.41570320166647 153.74576271232218,123.90663798933383 153.13559322059155,130.2235535181826 152.98305084742606,136.3742169928737 153.2881355928257,138.03655551967677 154.05084745772183,139.2001917407615 155.57627118658274,140.5300609540427 157.7118644071743,141.36122880375478 159.69491525460035,141.19499525881838 161.37288135569543,140.5300609540427 162.89830508548766,139.3664254361065 163.9661016948521,137.3716202598298 165.0338983060792,131.55342815921176 164.8813559319824,130.8884909391636 164.42372881341726,129.89108473190572 165.33898305147886,127.56380182260182 165.9491525432095,125.07028168684337 165.796610170044,120.58193831751123 165.0338983060792,118.75335135508794 162.5932203391567,116.25982122984715 161.6779661020264,115.92735033272766 159.08474576380104,115.92735033272766 157.86440677940845,116.5922920765588 155.57627118658274,118.58711610175669 154.9661016948521,119.58452743594535 154.66101694945246,121.08064358867705 153.4406779659912,128.2287400480127 152.98305084742606,136.70668479870073 153.13559322059155,138.03655551967677 154.05084745772183,139.53265911957715 156.0338983051479,140.86252813157625 158.4745762720704,141.36122880375478 161.22033898346126,140.6962945489213 162.74576271232218,139.3664254361065 164.42372881341726,135.8755151896039 164.8813559319824,134.3794091019081 164.57627118658274,132.2183651785599 165.0338983060792,129.5586158958031 165.9491525432095,130.8884909391636 167.93220338970423,131.71966243290808 171.89830508548766,131.88589669403154 173.2711864411831,131.387193873059 174.33898305054754,131.55342815921176 176.32203389890492,131.55342815921176 176.77966101747006,132.05213094246574 177.08474576286972,133.04953616962302 178.0,133.8807068465976 179.06779661029577,134.5456431619823 179.98305084835738,134.71187720960006 182.2711864411831,136.3742169928737 182.72881355974823,137.3716202598298 185.4745762720704,139.69889278989285 187.0,142.52486326557118" stroke="#4DD2FF" stroke-linecap="round" stroke-linejoin="round" stroke-width="0.5"><title>2024-08-08 3.3km</title><desc>14305881963</desc></polyline><polyline fill="none" points="67.0,203.08059428929118 66.80598802422173,202.30538708879612 66.22395209595561,201.67112617287785 65.51257485058159,200.5435501456377 64.08982035936788,199.4864463818958 63.44311377266422,199.34549912292277 61.05029940139502,199.20455184258753 57.752095808507875,198.42934141977457 56.39401197596453,197.93602536071558 55.22994011989795,197.79507786722388 54.38922155695036,197.5131828165031 49.73293413151987,196.94939245952992 47.98682634741999,196.66749715292826 47.340119760716334,196.38560176145984 46.822754490887746,196.94939245952992 45.141317365225405,197.23128768062452 44.68862275430001,197.6541303525446 43.45988023956306,198.49981512111844 40.03233532933518,201.95301996648777 39.57964071864262,202.16444025596138 38.9976047903765,202.09396683139494 37.31616766448133,200.47307659854414 36.02275449107401,198.7112361935433 34.535329341422766,197.3722352590994 30.525748503161594,193.07332452648552 29.232335329521447,192.01621229376178 28.39161676634103,190.9590988626005 27.550898203626275,190.53625315451063 27.16287425160408,190.18388158478774 25.675449101720005,187.9991748793982 25.222754490794614,187.1534805870033 21.924550897907466,182.92499761871295 21.019161676522344,181.16312405548524 19.919760478893295,179.61267256573774 19.725748502882197,178.6260202752892 19.919760478893295,177.42794109036913 19.85508982022293,177.28699049673742 19.725748502882197,177.21651519200532 19.337724550627172,177.42794109036913 19.337724550627172,177.63936694071162 19.467065868200734,177.92126800003462 19.661077844444662,178.06221849750727 20.63113772450015,178.1326937385602 21.08383233519271,178.41459464863874 21.795209580799565,179.2602968675783 22.700598802417517,179.75362280773697 23.929341317154467,179.82409792067483 24.576047904323786,179.75362280773697 25.7401197606232,179.1898217118578 25.998802395071834,178.9079210361815 26.580838323337957,177.21651519200532 26.451497005997226,175.8070079779136 26.451497005997226,174.679400672263 26.904191616922617,171.0851432842901 26.83952095801942,170.52133694646182 26.580838323337957,170.0280061212252 26.06347305397503,169.534675034869 25.352095808601007,169.1118196103489 24.899401197442785,169.04134368756786 23.799999999813735,169.04134368756786 23.28263473045081,169.1118196103489 22.50658682617359,169.39372324815486 21.213173652533442,170.4508611302008 20.889820359181613,171.2260948153562 20.76047904184088,172.98798715689918 20.43712574825622,175.03177810180932 20.30778443114832,176.30033574515255 20.566467065829784,177.1460398819181 20.501796407159418,177.56889166252222 20.243113772477955,177.85079274326563 19.919760478893295,177.92126800003462 19.467065868200734,177.7803174809087 19.467065868200734,177.56889166252222 20.43712574825622,177.42794109036913 20.372455089818686,177.28699049673742 20.17844311380759,177.21651519200532 19.014371257275343,177.35746579623083 18.43233532924205,177.28699049673742 18.10898203589022,176.58223720930982 16.233532933983952,174.5384496632032 15.522155688609928,173.48131641582586 14.55209580832161,172.2832306198543 14.099401197396219,171.4375220721704 13.45269461045973,169.7461026753299 13.0,168.90039182605688 13.129341317340732,168.19563219911652 14.87544910167344,166.50420692068292 15.457485029939562,166.1518262681784 16.621556886238977,165.58801694691647 17.65628742519766,164.4603972817422 18.88502993993461,163.89658693759702 19.40239520953037,162.41658316203393 19.98443113779649,161.8527715820237 20.30778443114832,161.71181863354286 20.76047904184088,161.78229511040263 20.95449101785198,161.71181863354286 21.213173652533442,161.28895966080017 21.5365269461181,160.02038159157382 21.85988023970276,158.0470344972564 22.31257485016249,157.13083621207625 22.63592814374715,156.91940571070882 23.670658682705835,156.98988254973665 24.576047904323786,157.2013130352134 26.51616766466759,157.27178985311184 29.16766467061825,157.97655773808947 34.60000000009313,158.96323188196402 34.858682634774595,158.96323188196402 35.44071856280789,158.68132509029238 35.76407185615972,158.68132509029238 36.21676646731794,159.59752185147954 36.734131736680865,160.09085819643224 37.57485029916279,161.14800662733614 38.22155688633211,161.6413421515026 40.35568862291984,163.68515797069995 40.67904191627167,164.1784921521903 41.1964071856346,165.58801694691647 41.77844311390072,166.64515914447838 43.52455089823343,168.47753611399094 44.23592814360745,169.81657854479272 45.2059880241286,170.87371594749857 45.65868263482116,171.78990072692977 46.240718562854454,172.42418196983635 47.27544910204597,173.7632187322597 48.50419161678292,175.10225357167656 49.40958083840087,176.5117618512595 50.96167664695531,176.72318790951977 51.60838323342614,177.0050892457366 53.03113772463985,178.06221849750727 53.80718562868424,179.04887138475897 54.647904191864654,179.61267256573774 55.553293413482606,180.88122397626285 56.200000000186265,181.51549903443083 56.91137724556029,183.1364222225966 57.04071856290102,183.77069574635243 57.04071856290102,185.53256438241806 56.78203592821956,186.02588700375054 56.652694610878825,186.80110773869092 56.00598802417517,187.9991748793982 55.61796407215297,188.56297064834507 53.9365269462578,190.04293291951763 52.901796407066286,191.17052164470078 51.09101796406321,192.36858317116275 50.37964071868919,193.07332452648552 49.5389221557416,193.07332452648552 49.08622754504904,192.79142804833828 48.05149700585753,193.35522091935854 47.922155688516796,193.56664315820672 47.792814371408895,194.6237536331173 48.18083832343109,195.39896721969126 48.37485029967502,196.10370628465898 48.82754491036758,196.59702331316657 49.40958083840087,196.38560176145984 49.86227544932626,196.38560176145984 50.767664670944214,196.7379709876841 54.45389221585356,197.3017614725395 54.647904191864654,197.5131828165031 54.90658682654612,198.14744656078983 55.29461077833548,198.42934141977457 58.2694610778708,199.20455184258753 59.11017964081839,199.13407819432905 59.95089820376597,199.41597275505774 60.856287425151095,199.2750254853163 61.37365269451402,198.9931308820378 62.408383233938366,199.6978672305704 63.831137724686414,199.62739361973945 66.15928143751808,201.74159962922568" stroke="#4DD2FF" stroke-linecap="round" stroke-linejoin="round" stroke-width="0.5"><title>2024-08-06 3.4km</title><desc>14305881954</desc></polyline><polyline fill="none" points="97.53996267914772,207.0 102.10860341787338,207.0 105.97437635064125,205.8510698224418 109.13728147745132,203.17023172788322 111.5973187983036,199.34046056075022 112.65162050537765,194.74473133916035 112.65162050537765,165.6383494604379 111.2458848953247,159.8936490677297 109.13728147745132,156.82980619603768 107.02867805957794,154.9149034600705 102.10860341787338,153.0 98.94569829106331,153.0 95.78279316425323,153.3829807494767 92.6198880393058,155.2978840651922 90.15985071845353,157.21278665633872 88.40268120355904,160.27662929706275 87.34837949462235,163.7234500539489 87.34837949462235,195.12770893331617 88.05124730058014,198.57450598059222 89.80841681547463,202.02130068140104 92.26845413632691,204.70213938504457 95.78279316425323,206.23404657747597 99.64856609888375,207.0 103.51433902978897,206.61702330363914 107.73154586367309,204.31916251359507 110.54301708936691,201.25534650636837 111.9487527012825,198.19152864580974 112.65162050537765,193.9787760633044 112.3001866042614,162.9574900888838 110.54301708936691,158.74470820836723 107.73154586367309,155.6808646414429 103.51433902978897,153.3829807494767 99.64856609888375,153.0 95.78279316425323,153.3829807494767 92.26845413632691,155.2978840651922 89.45698291435838,158.3617278635502 87.69981339760125,161.80854992382228 87.34837949462235,165.2553696371615 87.34837949462235,186.31921693868935 87.34837949462235,195.12770893331617 87.69981339760125,197.80855128355324 89.45698291435838,201.63832360878587 92.26845413632691,204.70213938504457 95.78279316425323,206.23404657747597 100.0,207.0 104.9200746435672,206.23404657747597 107.73154586367309,204.31916251359507 110.54301708936691,201.25534650636837 112.3001866042614,197.42557389149442 112.65162050537765,165.2553696371615 111.9487527012825,162.19153000647202 110.19158318638802,157.97874749079347 107.02867805957794,154.9149034600705 103.51433902978897,153.3829807494767 99.64856609888375,153.0 95.78279316425323,153.3829807494767 91.56558632850647,155.6808646414429 88.75411510653794,159.8936490677297 87.69981339760125,162.5745100621134 87.34837949462235,194.74473133916035 88.05124730058014,198.19152864580974 89.80841681547463,202.02130068140104 92.26845413632691,204.70213938504457 95.78279316425323,206.23404657747597 99.64856609888375,207.0 103.51433902978897,206.61702330363914 107.73154586367309,204.31916251359507 110.54301708936691,201.25534650636837 111.9487527012825,198.19152864580974 112.65162050537765,194.3617537152022 112.3001866042614,162.9574900888838 111.2458848953247,159.8936490677297 108.78584757260978,156.4468257073313 105.97437635064125,154.53192282561213 102.10860341787338,153.0 97.18852877803147,153.0 93.3227558452636,154.53192282561213 90.15985071845353,157.21278665633872 88.05124730058014,161.0425896672532 87.34837949462235,165.2553696371615 87.69981339760125,197.0425964705646 89.45698291435838,201.63832360878587 92.26845413632691,204.70213938504457 95.78279316425323,206.23404657747597 98.94569829106331,207.0 103.51433902978897,206.61702330363914 107.02867805957794,205.0851162262261 110.19158318638802,202.02130068140104 111.9487527012825,198.19152864580974 112.65162050537765,194.74473133916035 112.3001866042614,162.9574900888838 110.54301708936691,158.74470820836723 107.73154586367309,155.6808646414429 104.9200746435672,153.7659614700824 101.40573561377823,153.0 97.18852877803147,153.0 93.3227558452636,154.53192282561213 89.80841681547463,157.5957670873031 87.69981339760125,161.80854992382228 87.34837949462235,164.48940990306437 87.34837949462235,180.95751866139472 89.10554900951684,195.8936640350148 90.86271852441132,203.17023172788322 94.37705755233765,205.8510698224418 98.94569829106331,207.0 102.81147122569382,207.0 107.38011196255684,204.70213938504457 110.19158318638802,202.02130068140104 111.9487527012825,198.19152864580974 112.65162050537765,194.3617537152022 112.3001866042614,162.5745100621134 110.54301708936691,158.74470820836723 107.73154586367309,155.6808646414429 104.9200746435672,153.7659614700824 101.40573561377823,153.0 97.18852877803147,153.0 93.3227558452636,154.53192282561213 89.80841681547463,157.5957670873031 87.69981339760125,161.42556980997324 87.34837949462235,164.48940990306437 87.69981339760125,197.0425964705646 89.45698291435838,201.63832360878587 92.26845413632691,204.70213938504457 95.78279316425323,206.23404657747597 98.94569829106331,207.0 103.51433902978897,206.61702330363914 107.02867805957794,205.0851162262261 110.19158318638802,202.02130068140104 111.9487527012825,198.19152864580974 112.65162050537765,194.3617537152022 112.3001866042614,162.9574900888838 110.54301708936691,158.74470820836723 107.73154586367309,155.6808646414429 104.9200746435672,153.7659614700824 101.40573561377823,153.0 97.18852877803147,153.0 93.6741897482425,154.53192282561213 90.15985071845353,157.21278665633872 87.69981339760125,161.42556980997324 87.34837949462235,165.2553696371615 87.34837949462235,196.6596190216951 89.10554900951684,200.8723693746142 91.56558632850647,203.9361856142059 95.07992536015809,206.23404657747597 98.94569829106331,207.0 103.51433902978897,206.61702330363914 107.02867805957794,205.0851162262261 110.19158318638802,202.02130068140104 111.9487527012825,198.19152864580974 112.65162050537765,194.3617537152022 112.3001866042614,162.5745100621134 110.54301708936691,158.74470820836723 107.73154586367309,155.6808646414429 104.9200746435672,153.7659614700824 101.40573561377823,153.0 97.18852877803147,153.0 93.3227558452636,154.53192282561213 90.15985071845353,157.21278665633872 87.69981339760125,161.42556980997324 87.34837949462235,164.48940990306437 87.34837949462235,196.2766415430233 88.40268120355904,199.72343780705705 90.51128462143242,202.78725474188104 93.3227558452636,205.0851162262261 97.18852877803147,207.0 100.0,207.0 103.51433902978897,206.61702330363914 106.67724415659904,205.46809303900227 109.84014928154647,202.40427772607654" stroke="#4DD2FF" stroke-linecap="round" stroke-linejoin="round" stroke-width="0.5"><title>2024-08-02 3.2km</title><desc>14305881943</desc></polyline><polyline fill="none" points="146.13161305710673,197.83023442677222 147.06656049005687,200.88682502973825 149.55975364893675,203.60379271046259 152.98789424449205,204.96227593393996 157.03933312557638,204.96227593393996 160.4674737174064,203.60379271046259 162.96066687628627,201.90568810282275 165.4538600333035,197.83023442677222 166.38880746997893,194.4340202047024 166.70045661367476,167.60383761161938 165.4538600333035,161.15098498482257 162.96066687628627,156.39624554128386 160.4674737174064,154.3584985244088 155.1694382559508,153.0 151.11799937486649,153.33962466917 148.00150792486966,155.71699663810432 145.19666562229395,159.11324012465775 143.9500690419227,162.16985706868581 143.01512160897255,166.58496676036157 142.3918233178556,170.66044877865352 142.70347246341407,194.09439864219166 143.32677075453103,198.16985570732504 144.88501647859812,201.22644608002156 148.31315707042813,203.94341355469078 153.61119253374636,205.3018966759555 158.285929704085,204.6226551667787 162.02571944147348,202.58493002294563 164.51891260035336,199.86796172638424 165.76550917886198,196.47174904565327 166.38880746997893,189.67931598285213 166.0771583262831,182.5472502161283 166.70045661367476,167.2642140199896 166.38880746997893,163.52835282008164 164.20726345665753,158.09436734882183 162.02571944147348,155.71699663810432 157.97428056038916,153.6792493131943 154.23449082113802,153.33962466917 151.11799937486649,154.01887393184006 148.31315707042813,155.71699663810432 145.50831476785243,159.45286433259025 143.9500690419227,163.18872892088257 143.01512160897255,169.98120203218423 143.32677075453103,179.83026980306022 142.70347246341407,194.7736417434644 143.01512160897255,197.49061311944388 144.88501647859812,200.88682502973825 147.378209637478,203.2641718396917 152.98789424449205,205.3018966759555 156.72768398188055,204.6226551667787 160.4674737174064,202.58493002294563 163.27231602184474,199.86796172638424 165.4538600333035,196.13212763681076 166.0771583262831,193.4151554389391 166.0771583262831,187.9812061137054 166.38880746997893,166.58496676036157 166.0771583262831,162.84910499607213 164.20726345665753,158.43399163358845 162.6490177307278,156.05662110308185 159.84417542815208,154.01887393184006 155.48108740150928,153.33962466917 151.7412976641208,154.01887393184006 148.00150792486966,156.39624554128386 145.50831476785243,159.11324012465775 143.63841989822686,162.84910499607213 143.01512160897255,167.2642140199896 143.01512160897255,196.8113704295829 144.26171818748116,199.86796172638424 147.378209637478,203.2641718396917 150.49470108374953,204.96227593393996 153.9228416774422,205.3018966759555 158.59757884964347,204.2830343733076 162.33736858703196,202.24530907487497 164.20726345665753,199.5283405741211 166.0771583262831,195.11326325475238 166.38880746997893,192.0566687232349 166.70045661367476,181.5283827537205 166.38880746997893,166.58496676036157 165.76550917886198,162.16985706868581 164.51891260035336,158.09436734882183 162.33736858703196,155.71699663810432 158.90922799520195,154.01887393184006 154.85778911039233,153.6792493131943 151.11799937486649,154.69812309159897 147.378209637478,156.39624554128386 144.88501647859812,159.79248851467855 143.63841989822686,162.84910499607213 142.3918233178556,172.01894196355715 142.70347246341407,177.11328774644062 142.08017417415977,183.5661174475681 142.3918233178556,195.79250620189123 144.26171818748116,199.86796172638424 147.68985878117383,203.94341355469078 149.87140279449522,205.3018966759555 154.23449082113802,205.64151739166118 158.90922799520195,204.2830343733076 161.40242115221918,202.92455094400793 163.89561431109905,200.5472039547749 165.4538600333035,197.15099178766832 166.38880746997893,193.4151554389391 166.70045661367476,189.3396940608509 166.38880746997893,180.84913765033707 167.3237549047917,164.20760054234415 166.70045661367476,159.79248851467855 165.1422108914703,156.39624554128386 162.96066687628627,154.3584985244088 160.4674737174064,153.33962466917 156.1043856907636,153.0 152.05294680781662,153.6792493131943 147.378209637478,155.71699663810432 144.57336733303964,158.77361589227803 143.01512160897255,162.5094810454175 142.08017417415977,167.60383761161938 141.7685250286013,181.86800526734442 141.7685250286013,194.7736417434644 142.3918233178556,197.83023442677222 143.32677075453103,199.18871939601377 144.88501647859812,200.88682502973825 145.50831476785243,202.58493002294563 148.31315707042813,205.3018966759555 153.9228416774422,207.0 155.48108740150928,207.0 158.90922799520195,205.64151739166118 163.27231602184474,202.58493002294563 165.4538600333035,198.84909819229506 166.70045661367476,194.7736417434644 167.3237549047917,166.9245904025156 167.01210575923324,162.16985706868581 166.0771583262831,158.09436734882183 164.51891260035336,155.37737214844674 160.4674737174064,153.6792493131943 154.23449082113802,154.3584985244088 151.11799937486649,154.3584985244088 148.6248062159866,155.03774763294496 145.50831476785243,157.07549434085377 143.9500690419227,159.11324012465775 143.01512160897255,161.15098498482257 142.08017417415977,165.2264719333034 142.08017417415977,195.79250620189123 143.01512160897255,199.86796172638424 145.19666562229395,203.94341355469078 147.06656049005687,204.96227593393996 152.98789424449205,206.6603793860413 157.03933312557638,206.6603793860413 160.77912286296487,204.96227593393996 163.89561431109905,202.24530907487497 165.76550917886198,198.84909819229506 166.70045661367476,195.79250620189123 167.94705319404602,173.0378115819767 167.94705319404602,166.245343091432 167.01210575923324,161.15098498482257 164.83056174591184,156.39624554128386 162.96066687628627,154.3584985244088 160.4674737174064,153.33962466917 156.72768398188055,153.33962466917 151.7412976641208,155.37737214844674 149.87140279449522,154.69812309159897 148.31315707042813,154.69812309159897 145.19666562229395,157.07549434085377 143.63841989822686,159.45286433259025 142.3918233178556,162.5094810454175 141.7685250286013,172.69818840082735 142.08017417415977,195.11326325475238 143.63841989822686,200.88682502973825 145.50831476785243,203.60379271046259 149.55975364893675,205.98113808245398 154.23449082113802,206.6603793860413 159.84417542815208,205.64151739166118 162.96066687628627,203.60379271046259 164.83056174591184,200.20758285350166 166.70045661367476,194.7736417434644 167.94705319404602,181.18876021518372 167.63540404848754,166.58496676036157 167.01210575923324,160.81136090680957 164.20726345665753,155.71699663810432 161.0907720066607,153.6792493131943 157.97428056038916,153.0 147.68985878117383,155.03774763294496 144.26171818748116,158.77361589227803 142.70347246341407,163.18872892088257 143.01512160897255,166.58496676036157 142.70347246341407,193.4151554389391 144.26171818748116,198.16985570732504 147.378209637478,201.90568810282275 151.42964851856232,203.94341355469078 155.79273654706776,204.2830343733076 157.66263141483068,203.60379271046259 161.40242115221918,201.22644608002156 164.20726345665753,198.16985570732504 165.76550917886198,194.7736417434644 166.38880746997893,191.71704698051326 168.88200062699616,184.9246067297645 178.2314749713987,184.9246067297645" stroke="#4DD2FF" stroke-linecap="round" stroke-linejoin="round" stroke-width="0.5"><title>2024-07-30 3.7km</title><desc>14305881948</desc></polyline><polyline fill="none" points="28.478448275709525,240.38033144368092 28.24568965518847,240.25356859745807 26.53879310330376,240.97189101434196 24.75431034481153,241.39443318269332 24.405172413680702,241.52119577111444 24.28879310330376,241.69021251102095 24.24999999976717,241.85922920008306 24.24999999976717,242.49304133027908 24.521551724057645,243.8451714803523 24.637931034434587,244.01418751981691 24.637931034434587,243.8451714803523 24.056034482782707,242.78882007920765 24.056034482782707,242.15500828329823 23.978448275942355,241.98599168343935 23.590517241274938,241.77472086195485 23.047413792926818,241.64795833083917 22.07758620684035,241.90148336446146 21.068965517217293,242.07049998978619 19.323275862028822,242.535295446869 18.58620689646341,242.57754956014105 16.801724137738347,242.9578364371555 13.698275862028822,243.9719335147529 13.310344827361405,244.1409495160624 13.077586206840351,244.39447342255153 13.0,244.7747590673389 13.0,245.07053661282407 13.426724137738347,246.29589906756883 13.659482758492231,246.5916758106614 14.16379310330376,246.8451986091095 14.74568965495564,246.92970618320396 15.133620689623058,246.92970618320396 15.482758620521054,246.80294481734745 16.37499999976717,246.38040672437637 17.344827586086467,246.1268837156822 18.392241379246116,245.5353295831883 19.86637931014411,244.90152089160983 20.215517241274938,244.8592669533391 20.448275862028822,245.23955228296109 20.603448275709525,245.3663140021672 20.99137931014411,245.4085679021955 22.62068965518847,245.0282826872426 23.862068965332583,244.4789813659445 24.133620689390227,244.18320350852446 24.24999999976717,243.76066344152787 24.24999999976717,242.66205777737196 24.17241379315965,241.7324666880304 24.24999999976717,241.56344996084226 24.36637931014411,241.4366873819381 26.616379310376942,240.8451283017057 31.62068965495564,239.83102556940867 31.814655172405764,239.78877124906285 31.969827586086467,239.83102556940867 32.08620689646341,240.00004281880683 32.24137931037694,240.59160279054777 32.2801724136807,240.97189101434196 32.20258620684035,241.14090791982017 31.11637931014411,242.07049998978619 29.99137931014411,242.9578364371555 29.642241379246116,243.1268527440552 27.780172413680702,243.46488520523417 26.03448275849223,244.05644152182504 25.41379310330376,244.18320350852446 25.219827586086467,244.18320350852446 24.83189655165188,243.92967950654565 24.676724137971178,243.63390135933878 24.17241379315965,241.90148336446146 24.21120689623058,241.7324666880304 24.443965517217293,241.4366873819381 24.75431034481153,241.26767056554672 25.530172413447872,241.14090791982017 26.771551724057645,240.80287405778654 29.176724137738347,240.38033144368092 31.737068965332583,239.78877124906285 31.931034482549876,239.78877124906285 32.04741379315965,239.83102556940867 32.125,240.00004281880683 32.396551724290475,241.14090791982017 32.6293103445787,241.39443318269332 33.13362068962306,241.47894157812698 33.67672413797118,241.39443318269332 34.103448275709525,241.0563994734839 34.18103448278271,240.92963677999796 34.142241379246116,240.80287405778654 34.02586206886917,240.67611130705336 33.67672413797118,240.67611130705336 32.978448275709525,241.26767056554672 32.435344827361405,241.60570414733957 31.193965517217293,241.98599168343935 30.262931034434587,242.78882007920765 29.719827586319298,243.0845986721106 27.974137930897996,243.3803771090461 25.91810344811529,244.01418751981691 25.29741379315965,244.01418751981691 24.987068965332583,243.8029174625699 24.715517241274938,243.50713924854062 24.28879310330376,242.23951656420832 24.21120689623058,241.77472086195485 24.443965517217293,241.47894157812698 24.79310344811529,241.30992477442487 26.189655172172934,240.97189101434196 28.24568965518847,240.59160279054777 31.775862068869174,239.7465169254865 32.125,239.78877124906285 32.435344827361405,240.00004281880683 32.939655172405764,240.4648399919679 33.21120689646341,240.88738254236523 33.482758620753884,240.97189101434196 33.90948275849223,240.67611130705336 34.142241379246116,240.38033144368092 34.33620689646341,239.9577885111794 34.375,239.32397351539112 34.607758620521054,239.19721043028403 35.57758620684035,238.94368417409714 35.96551724127494,238.69015780329937 36.392241379246116,238.18310471766745 36.7801724136807,238.0140869206516 38.99137931037694,237.54928771586856 39.88362068962306,237.21125168868457 41.900862069102004,236.70419726587716 42.75431034481153,236.57743358847802 43.37499999976717,236.3661607291142 44.30603448278271,236.28165156321484 45.97413793113083,235.94361477176426 46.71120689646341,235.94361477176426 47.71982758608647,236.40841530737816 48.45689655165188,236.40841530737816 50.2801724136807,235.9013601584884 50.978448275709525,235.8168509224197 51.482758620753884,235.9013601584884 52.02586206886917,235.8591055420984 52.29741379292682,235.69008704446605 52.45258620684035,235.22528591332957 52.80172413797118,235.05626722468878 53.5,234.97175786131993 54.15948275849223,235.01401254464872 55.63362068962306,234.760484397033 56.13793103443459,234.7182296946412 56.25431034481153,234.80273909616517 56.17672413797118,234.7182296946412 56.48706896533258,234.54921085305978 58.310344827594236,234.50695613471908 59.2801724136807,234.337937229604 61.685344827594236,234.21117301724735 62.96551724127494,233.8731349775917 63.66379310353659,233.8731349775917 64.36206896556541,233.61960631422698 65.37068965518847,233.53509673423832 65.52586206886917,233.49284193944186 65.79741379292682,233.61960631422698 65.95258620684035,233.1548034667212 66.0689655172173,233.07029381676693 66.224137930898,233.1125486434321 66.45689655165188,233.4083323404193 66.92241379292682,233.4083323404193 67.0,233.66186109933187 66.92241379292682,233.66186109933187 66.80603448254988,233.4505871416186 66.45689655165188,233.4083323404193 66.14655172405764,233.4505871416186 65.83620689646341,233.36607753610588" stroke="#4DD2FF" stroke-linecap="round" stroke-linejoin="round" stroke-width="0.5"><title>2024-07-16 3.4km</title><desc>14305881937</desc></polyline></svg>