<?xml version="1.0" encoding="utf-8" ?>
<svg baseProfile="full" height="200mm" version="1.1" viewBox="0,0,200,200" width="200mm" xmlns="http://www.w3.org/2000/svg" xmlns:ev="http://www.w3.org/2001/xml-events" xmlns:xlink="http://www.w3.org/1999/xlink"><defs /><rect fill="#1a1a1a" height="200" width="200" x="0" y="0" /><text alignment-baseline="middle" fill="#e1ed5e" style="dominant-baseline: central; font-size:9.0px; font-family:Arial;" text-anchor="middle" x="100.0" y="100.0">2024</text><line stroke="#e1ed5e" stroke-width="0.3" x1="100.0" x2="100.0" y1="15.0" y2="10.0" /><path d="M 100.0 14.0 a86.0,86.0 0 0,1 42.35913384403234,11.155469271406648" fill="none" id="id1" stroke="none" /><text fill="#e1ed5e" style="font-size:6.75px; font-family:Arial;" text-anchor="middle"><textPath startOffset="22.145653131862478" xlink:href="#id1">January</textPath></text><line stroke="#e1ed5e" stroke-width="0.3" x1="143.13028292997686" x2="145.6673583964461" y1="26.7553504044142" y2="22.446841604673864" /><path d="M 143.63769802327073 25.89364864446614 a86.0,86.0 0 0,1 29.32050498858742,28.57503671076993" fill="none" id="id2" stroke="none" /><text fill="#e1ed5e" style="font-size:6.75px; font-family:Arial;" text-anchor="middle"><textPath startOffset="20.669276256404974" xlink:href="#id2">February</textPath></text><line stroke="#e1ed5e" stroke-width="0.3" x1="172.87174338648825" x2="177.1583165268699" y1="56.24261187166439" y2="53.66864786411523" /><path d="M 173.72905801456457 55.72781907015455 a86.0,86.0 0 0,1 12.242430191666344,42.057860355516425" fill="none" id="id3" stroke="none" /><text fill="#e1ed5e" style="font-size:6.75px; font-family:Arial;" text-anchor="middle"><textPath startOffset="22.145653131862474" xlink:href="#id3">March</textPath></text><line stroke="#e1ed5e" stroke-width="0.3" x1="184.99686870605535" x2="189.99668451229388" y1="99.2704041080226" y2="99.22748670261217" /><path d="M 185.99683186730306 99.26182062694052 a86.0,86.0 0 0,1 -10.086455211305974,41.156179273409016" fill="none" id="id4" stroke="none" /><text fill="#e1ed5e" style="font-size:6.75px; font-family:Arial;" text-anchor="middle"><textPath startOffset="21.40746469413373" xlink:href="#id4">April</textPath></text><line stroke="#e1ed5e" stroke-width="0.3" x1="174.33088141563837" x2="178.70328620479359" y1="141.23008692659167" y2="143.65538615756765" /><path d="M 175.20536237346943 141.71514677278685 a86.0,86.0 0 0,1 -30.301960400862466,31.631185727798858" fill="none" id="id5" stroke="none" /><text fill="#e1ed5e" style="font-size:6.75px; font-family:Arial;" text-anchor="middle"><textPath startOffset="22.145653131862474" xlink:href="#id5">May</textPath></text><path d="M 113.31354834802062 116.24036423190432 l 17.355743851746173 21.171185494654225 a48.37591897811802,48.37591897811802 0 0,0 -0.6467381898315883,0.5209665055339743 l -16.98975489155933 -21.466000293981605" fill="red" stroke="none" /><path d="M 111.8722381534696 117.32195027204791 l 8.928316506860952 13.026680609481591 a36.79269588601419,36.79269588601419 0 0,0 -0.5240396147821409,0.3525972399703606 l -8.703380603981808 -13.178027523509073" fill="red" stroke="none" /><path d="M 111.5731344415666 117.5232005979908 l 15.43929572494566 23.37706154248235 a49.01533256706642,49.01533256706642 0 0,0 -0.7060877305351668,0.45767753622295393 l -15.035722362153484 -23.638652920409196" fill="red" stroke="none" /><line stroke="#e1ed5e" stroke-width="0.3" x1="143.1302829299769" x2="145.66735839644613" y1="173.24464959558577" y2="177.55315839532614" /><path d="M 143.63769802327073 174.10635135553383 a86.0,86.0 0 0,1 -40.68552437913181,11.842963189579606" fill="none" id="id6" stroke="none" /><text fill="#e1ed5e" style="font-size:6.75px; font-family:Arial;" text-anchor="middle"><textPath startOffset="21.407464694133747" xlink:href="#id6">June</textPath></text><line stroke="#e1ed5e" stroke-width="0.3" x1="101.45913802915013" x2="101.54496967792366" y1="184.9874750549273" y2="189.98673829345242" /><path d="M 101.47630435890484 185.9873277026323 a86.0,86.0 0 0,1 -42.54439059252881,-10.42667462771756" fill="none" id="id7" stroke="none" /><text fill="#e1ed5e" style="font-size:6.75px; font-family:Arial;" text-anchor="middle"><textPath startOffset="22.145653131862474" xlink:href="#id7">July</textPath></text><path d="M 95.70440661134978 120.55596938700252 l -6.843735176070768 32.74975027752061 a54.457179414890156,54.457179414890156 0 0,0 -0.9134221559447151,-0.1990761075157897 l 7.40491974863462 -32.627442711871105" fill="red" stroke="none" /><path d="M 95.00130118170881 120.39639698878247 l -11.170564963501056 45.5797170157251 a67.92858537008523,67.92858537008523 0 0,0 -1.130185150809322,-0.28728864578107927 l 11.951355407535756 -45.38124313810876" fill="red" stroke="none" /><path d="M 90.28995756902619 118.62028667847754 l -23.066694234487226 44.23342765226847 a70.88655635314784,70.88655635314784 0 0,0 -1.074137859140371,-0.5719179089367286 l 23.82262090941416 -43.83093927560917" fill="red" stroke="none" /><line stroke="#e1ed5e" stroke-width="0.3" x1="58.13341422392154" x2="55.67067388415222" y1="173.97424548756322" y2="178.32567169271397" /><path d="M 57.64086615596768 174.84453072859336 a86.0,86.0 0 0,1 -31.369924170532247,-30.572349798747897" fill="none" id="id8" stroke="none" /><text fill="#e1ed5e" style="font-size:6.75px; font-family:Arial;" text-anchor="middle"><textPath startOffset="22.145653131862474" xlink:href="#id8">August</textPath></text><path d="M 89.34428304082925 118.09573695890944 l -22.47843031060825 38.17328892166812 a65.299885059964,65.299885059964 0 0,0 -0.9610502605999958,-0.5770830682734784 l 23.130413327765673 -37.78179185285872" fill="red" stroke="none" /><path d="M 89.03521579738668 117.91015095944536 l -19.74688413909084 32.25505120524864 a58.81967426427533,58.81967426427533 0 0,0 -0.8566269677580937,-0.5345985837376493 l 20.29767523563865 -31.911316824669445" fill="red" stroke="none" /><path d="M 88.1277618465304 117.32195027204791 l -25.90053716654219 37.789657772916044 a66.81371039448287,66.81371039448287 0 0,0 -0.9404981318811214,-0.6565407388188704 l 26.545430389597076 -37.339472218292045" fill="red" stroke="none" /><path d="M 87.54013794807813 116.9041958592261 l -26.960384211325998 36.57693907437327 a66.43935286591052,66.43935286591052 0 0,0 -0.9122661341708671,-0.6845815143369085 l 27.584303334407632 -36.10873853277235" fill="red" stroke="none" /><path d="M 86.96720088162412 116.46651593811092 l -22.963344910575927 29.013436141219223 a58.00127952115547,58.00127952115547 0 0,0 -0.7754197401892154,-0.6246232536130772 l 23.458015421120404 -28.614964593812733" fill="red" stroke="none" /><path d="M 82.98947788004972 112.3143062007846 l -34.883541273503035 25.252993740022813 a64.0647784693457,64.0647784693457 0 0,0 -0.6372459494413892,-0.8963662323859243 l 35.311902321474385 -24.650450280927384" fill="red" stroke="none" /><line stroke="#e1ed5e" stroke-width="0.3" x1="26.387840678322732" x2="22.057713659400548" y1="142.50000000000003" y2="145.00000000000006" /><path d="M 25.521815274538298 143.00000000000003 a86.0,86.0 0 0,1 -11.493303480769221,-40.785679425670985" fill="none" id="id9" stroke="none" /><text fill="#e1ed5e" style="font-size:6.75px; font-family:Arial;" text-anchor="middle"><textPath startOffset="21.40746469413373" xlink:href="#id9">September</textPath></text><path d="M 80.5471966667186 107.91128576633889 l -58.35840999984417 23.733857299016694 a84.0,84.0 0 0,0 -0.5317653001355023,-1.3403959311457387 l 58.7572339749458 -22.72856035065739" fill="red" stroke="none" /><line stroke="#e1ed5e" stroke-width="0.3" x1="15.003131293944662" x2="10.003315487706104" y1="100.72959589197737" y2="100.7725132973878" /><path d="M 14.003168132696942 100.73817937305945 a86.0,86.0 0 0,1 10.791469493833604,-42.45332614584628" fill="none" id="id10" stroke="none" /><text fill="#e1ed5e" style="font-size:6.75px; font-family:Arial;" text-anchor="middle"><textPath startOffset="22.145653131862435" xlink:href="#id10">October</textPath></text><line stroke="#e1ed5e" stroke-width="0.3" x1="26.387840678322718" x2="22.05771365940052" y1="57.49999999999999" y2="54.99999999999999" /><path d="M 25.521815274538284 56.99999999999999 a86.0,86.0 0 0,1 29.574782752854787,-30.34633250058573" fill="none" id="id11" stroke="none" /><text fill="#e1ed5e" style="font-size:6.75px; font-family:Arial;" text-anchor="middle"><textPath startOffset="21.40746469413373" xlink:href="#id11">November</textPath></text><line stroke="#e1ed5e" stroke-width="0.3" x1="56.869717070023135" x2="54.33264160355391" y1="26.7553504044142" y2="22.446841604673864" /><path d="M 56.362301976729285 25.89364864446614 a86.0,86.0 0 0,1 42.16139366436587,-11.88097634709845" fill="none" id="id12" stroke="none" /><text fill="#e1ed5e" style="font-size:6.75px; font-family:Arial;" text-anchor="middle"><textPath startOffset="22.145653131862474" xlink:href="#id12">December</textPath></text></svg>